# xmcd
#
# Track frame offsets: 
#        150
#        23225
#        49250
#        65675
#        94175
#        110637
#        135687
#        158112
#        172325
#        189537
#
# Disc length: 2762 seconds
#
# Revision: 4
# Processed by: cddbd v1.5.2PL0 Copyright (c) Steve Scherf et al.
# Submitted via: ExactAudioCopy v1.3
#
DISCID=920ac80a
DTITLE=Johnny Adams - Room With A View Of The Blues
DYEAR=1988
DGENRE=Soul
TTITLE0=Room With a View
TTITLE1=I Don't Want To Do Wrong
TTITLE2=Not Trustworthy (A Lyin' Woman)
TTITLE3=Neither One of Us (Wants To Be the First To Say Goodbye)
TTITLE4=How Wrong Can a Good Man Be
TTITLE5=Body and Fender Man
TTITLE6=I Owe You
TTITLE7=Wish I'd Never Loved You at All
TTITLE8=The Hunt is On
TTITLE9=A World I Never Made
EXTD=
EXTT0=
EXTT1=
EXTT2=
EXTT3=
EXTT4=
EXTT5=
EXTT6=
EXTT7=
EXTT8=
EXTT9=
PLAYORDER=
